<?xml version="1.0" encoding="utf-8"?>
<svg version="1.1" id="Layer_1" xmlns="http://www.w3.org/2000/svg" xmlns:xlink="http://www.w3.org/1999/xlink" x="0px" y="0px"
	 viewBox="0 0 410.5 117.8" enable-background="new 0 0 410.5 117.8" xml:space="preserve">
<g>
	<path fill="#55ACEE" d="M95.5,90.1h-16V53.7c0-0.9-0.1-2-0.4-3.3c-0.2-1.3-0.8-2.6-1.6-3.9c-0.8-1.3-2-2.4-3.5-3.3
		c-1.5-0.9-3.6-1.3-6.3-1.3c-3.6,0-6.5,1.1-8.7,3.3c-2.3,2.2-3.4,5-3.4,8.6v36.4h-16V53.7c0-0.9-0.1-2-0.4-3.3
		c-0.2-1.3-0.7-2.6-1.5-3.9c-0.8-1.3-1.9-2.4-3.4-3.3c-1.5-0.9-3.6-1.3-6.3-1.3c-3.6,0-6.6,1.1-8.8,3.3c-2.2,2.2-3.3,5-3.3,8.6v36.4
		H0V54c0-4,0.7-7.6,2-11c1.3-3.4,3.2-6.3,5.6-8.8c2.4-2.5,5.4-4.5,8.8-5.9c3.5-1.4,7.3-2.1,11.6-2.1c4.3,0,8.1,0.8,11.4,2.4
		c3.3,1.6,6.2,3.7,8.4,6.5c2.3-2.7,5.2-4.9,8.6-6.5c3.4-1.6,7.1-2.4,11.3-2.4c4.4,0,8.2,0.7,11.7,2.1c3.4,1.4,6.3,3.3,8.7,5.7
		c2.4,2.5,4.2,5.4,5.4,8.8c1.2,3.4,1.9,7.1,1.9,11.3V90.1z"/>
	<path fill="#55ACEE" d="M131.5,26.2c4.4,0,8.4,0.8,12.2,2.5c3.8,1.7,7.1,4,10,6.9c2.9,2.9,5.1,6.4,6.8,10.4c1.7,4,2.5,8.3,2.5,13
		c0,4.7-0.8,9-2.5,12.9c-1.7,4-3.9,7.4-6.8,10.3c-2.9,2.9-6.2,5.2-10,6.8c-3.8,1.7-7.9,2.5-12.2,2.5c-4.4,0-8.4-0.8-12.2-2.5
		c-3.8-1.7-7.1-3.9-9.9-6.8c-2.8-2.9-5.1-6.3-6.7-10.3c-1.7-4-2.5-8.3-2.5-12.9c0-4.7,0.8-9,2.5-13c1.7-4,3.9-7.5,6.7-10.4
		c2.8-2.9,6.1-5.2,9.9-6.9C123.1,27,127.2,26.2,131.5,26.2z M131.6,76.9c2.1,0,4.1-0.4,6-1.3c1.9-0.8,3.5-2.1,4.9-3.6
		c1.4-1.6,2.5-3.4,3.3-5.6c0.8-2.2,1.2-4.6,1.2-7.3c0-2.7-0.4-5.1-1.2-7.4c-0.8-2.3-1.9-4.2-3.3-5.8c-1.4-1.6-3.1-2.9-4.9-3.8
		c-1.9-0.9-3.8-1.3-6-1.3c-2.1,0-4.1,0.4-6,1.3c-1.9,0.9-3.5,2.1-4.9,3.8c-1.4,1.6-2.5,3.6-3.3,5.8c-0.8,2.3-1.2,4.7-1.2,7.4
		c0,2.7,0.4,5.1,1.2,7.3c0.8,2.2,1.9,4.1,3.3,5.6c1.4,1.6,3,2.8,4.9,3.6C127.5,76.5,129.5,76.9,131.6,76.9z"/>
	<path fill="#DDDDDD" d="M190.2,74.6h9.2c2.3,0,4.4-0.4,6.4-1.2c2-0.8,3.8-1.9,5.2-3.3c1.5-1.4,2.6-3.1,3.4-5
		c0.8-1.9,1.3-4.1,1.3-6.4c0-2.3-0.4-4.5-1.3-6.6c-0.8-2.1-2-3.9-3.4-5.4c-1.5-1.5-3.1-2.7-5.1-3.6c-1.9-0.9-4-1.3-6.2-1.3
		s-4.2,0.5-6.2,1.4c-1.9,0.9-3.6,2.2-5.1,3.8c-1.5,1.6-2.6,3.4-3.4,5.5c-0.8,2.1-1.3,4.4-1.3,6.8v58.7h-16V59.1
		c0-4.5,0.8-8.8,2.4-12.8c1.6-4,3.8-7.5,6.6-10.5c2.8-3,6.2-5.3,10.1-7.1c3.9-1.7,8.2-2.6,12.9-2.6c4.7,0,9,0.9,12.9,2.6
		c4,1.7,7.3,4.1,10.1,7c2.8,2.9,5,6.4,6.5,10.3c1.6,3.9,2.4,8.1,2.4,12.5c0,4.4-0.8,8.5-2.3,12.3c-1.5,3.8-3.7,7.2-6.4,10
		c-2.7,2.8-5.9,5.1-9.6,6.7c-3.7,1.7-7.7,2.5-12.1,2.5h-11.1V74.6z"/>
	<path fill="#DDDDDD" d="M290.5,74.7c-1.3,3.4-3.2,6.3-5.7,8.8c-2.5,2.5-5.4,4.5-8.9,5.9c-3.5,1.4-7.3,2.1-11.5,2.1
		c-4.4,0-8.2-0.7-11.7-2.1c-3.4-1.4-6.3-3.3-8.7-5.7c-2.4-2.5-4.2-5.4-5.4-8.8c-1.3-3.4-1.9-7.1-1.9-11.3V27.8h16v36.4
		c0,0.9,0.1,2,0.4,3.3c0.2,1.3,0.8,2.6,1.6,3.9c0.8,1.3,2,2.4,3.5,3.3c1.5,0.9,3.6,1.3,6.3,1.3c3.5,0,6.5-1.1,8.7-3.3
		c2.3-2.2,3.4-5.1,3.4-8.5V27.8h16v35.9C292.5,67.7,291.9,71.3,290.5,74.7z"/>
	<path fill="#DDDDDD" d="M332.6,27.8c4.4,0,8.4,0.8,12.1,2.5c3.7,1.7,6.9,3.9,9.6,6.7c2.7,2.8,4.8,6.2,6.4,10
		c1.5,3.8,2.3,7.9,2.3,12.3s-0.8,8.5-2.4,12.4c-1.6,3.9-3.8,7.3-6.5,10.3c-2.8,2.9-6.2,5.3-10.1,7c-4,1.7-8.3,2.6-12.9,2.6
		c-4.7,0-9-0.9-12.9-2.6c-3.9-1.7-7.3-4.1-10.1-7c-2.8-2.9-5-6.4-6.6-10.4c-1.6-4-2.4-8.2-2.4-12.8V0.1h16v58.7
		c0,2.4,0.4,4.7,1.3,6.8c0.8,2.1,2,3.9,3.5,5.5c1.5,1.6,3.1,2.8,5.1,3.7c1.9,0.9,4,1.3,6.2,1.3c2.2,0,4.2-0.4,6.2-1.3
		c1.9-0.9,3.6-2.1,5.1-3.6c1.5-1.5,2.6-3.3,3.4-5.3c0.8-2.1,1.3-4.3,1.3-6.6c0-2.3-0.4-4.4-1.3-6.4c-0.8-2-2-3.7-3.4-5.1
		c-1.5-1.5-3.2-2.6-5.2-3.4c-2-0.8-4.2-1.2-6.4-1.2h-9.2V27.8H332.6z"/>
	<path fill="#FFFFFF" d="M410.5,3.8c-1.5,0.7-3,1.1-4.7,1.3c1.7-1,3-2.6,3.6-4.5c-1.6,0.9-3.3,1.6-5.2,2c-1.5-1.6-3.6-2.6-6-2.5
		c-4.5,0-8.2,3.7-8.1,8.2c0,0.6,0.1,1.3,0.2,1.9c-6.8-0.3-12.8-3.5-16.9-8.4c-0.7,1.2-1.1,2.6-1.1,4.1c0,2.8,1.5,5.3,3.7,6.8
		c-1.3,0-2.6-0.4-3.7-1c0,0,0,0.1,0,0.1c0,4,2.9,7.2,6.6,8c-0.7,0.2-1.4,0.3-2.2,0.3c-0.5,0-1,0-1.5-0.1c1.1,3.2,4.1,5.6,7.7,5.6
		c-2.8,2.2-6.3,3.5-10.1,3.6c-0.7,0-1.3,0-1.9-0.1c3.6,2.3,7.9,3.6,12.5,3.6c15-0.1,23.2-12.6,23.1-23.4c0-0.4,0-0.7,0-1.1
		C408.1,6.9,409.4,5.4,410.5,3.8z"/>
</g>
</svg>
